<?xml version="1.0" encoding="UTF-8"?>
<svg id="Layer_1" xmlns="http://www.w3.org/2000/svg" xmlns:xlink="http://www.w3.org/1999/xlink" version="1.1" viewBox="0 0 419 146">
  <!-- Generator: Adobe Illustrator 30.3.0, SVG Export Plug-In . SVG Version: 2.1.3 Build 182)  -->
  <defs>
    <style>
      .st0 {
        fill: none;
      }

      .st1 {
        fill: url(#linear-gradient);
      }

      .st2 {
        clip-path: url(#clippath-17);
      }

      .st3 {
        clip-path: url(#clippath-19);
      }

      .st4 {
        clip-path: url(#clippath-11);
      }

      .st5 {
        clip-path: url(#clippath-16);
      }

      .st6 {
        clip-path: url(#clippath-18);
      }

      .st7 {
        clip-path: url(#clippath-10);
      }

      .st8 {
        clip-path: url(#clippath-15);
      }

      .st9 {
        clip-path: url(#clippath-13);
      }

      .st10 {
        clip-path: url(#clippath-14);
      }

      .st11 {
        clip-path: url(#clippath-12);
      }

      .st12 {
        clip-path: url(#clippath-31);
      }

      .st13 {
        clip-path: url(#clippath-32);
      }

      .st14 {
        clip-path: url(#clippath-33);
      }

      .st15 {
        clip-path: url(#clippath-34);
      }

      .st16 {
        clip-path: url(#clippath-35);
      }

      .st17 {
        clip-path: url(#clippath-39);
      }

      .st18 {
        clip-path: url(#clippath-30);
      }

      .st19 {
        clip-path: url(#clippath-36);
      }

      .st20 {
        clip-path: url(#clippath-37);
      }

      .st21 {
        clip-path: url(#clippath-38);
      }

      .st22 {
        clip-path: url(#clippath-27);
      }

      .st23 {
        clip-path: url(#clippath-29);
      }

      .st24 {
        clip-path: url(#clippath-26);
      }

      .st25 {
        clip-path: url(#clippath-28);
      }

      .st26 {
        clip-path: url(#clippath-20);
      }

      .st27 {
        clip-path: url(#clippath-21);
      }

      .st28 {
        clip-path: url(#clippath-22);
      }

      .st29 {
        clip-path: url(#clippath-23);
      }

      .st30 {
        clip-path: url(#clippath-24);
      }

      .st31 {
        clip-path: url(#clippath-25);
      }

      .st32 {
        clip-path: url(#clippath-41);
      }

      .st33 {
        clip-path: url(#clippath-42);
      }

      .st34 {
        clip-path: url(#clippath-43);
      }

      .st35 {
        clip-path: url(#clippath-44);
      }

      .st36 {
        clip-path: url(#clippath-45);
      }

      .st37 {
        clip-path: url(#clippath-49);
      }

      .st38 {
        clip-path: url(#clippath-40);
      }

      .st39 {
        clip-path: url(#clippath-46);
      }

      .st40 {
        clip-path: url(#clippath-47);
      }

      .st41 {
        clip-path: url(#clippath-48);
      }

      .st42 {
        clip-path: url(#clippath-1);
      }

      .st43 {
        clip-path: url(#clippath-3);
      }

      .st44 {
        clip-path: url(#clippath-4);
      }

      .st45 {
        clip-path: url(#clippath-2);
      }

      .st46 {
        clip-path: url(#clippath-7);
      }

      .st47 {
        clip-path: url(#clippath-6);
      }

      .st48 {
        clip-path: url(#clippath-9);
      }

      .st49 {
        clip-path: url(#clippath-8);
      }

      .st50 {
        clip-path: url(#clippath-5);
      }

      .st51 {
        fill: #45b97c;
      }

      .st52 {
        fill: #fff;
      }

      .st53 {
        fill: #023537;
      }

      .st54 {
        clip-path: url(#clippath);
      }
    </style>
    <clipPath id="clippath">
      <rect class="st0" x="-97.81" y="-57.14" width="606.61" height="266.61"/>
    </clipPath>
    <clipPath id="clippath-1">
      <rect class="st0" x="-97.81" y="-57.14" width="606.61" height="266.61"/>
    </clipPath>
    <clipPath id="clippath-2">
      <rect class="st0" x="-97.81" y="-57.14" width="606.61" height="266.61"/>
    </clipPath>
    <clipPath id="clippath-3">
      <rect class="st0" x="-97.81" y="-57.14" width="606.61" height="266.61"/>
    </clipPath>
    <clipPath id="clippath-4">
      <rect class="st0" x="-97.81" y="-57.14" width="606.61" height="266.61"/>
    </clipPath>
    <clipPath id="clippath-5">
      <rect class="st0" x="-97.81" y="-57.14" width="606.61" height="266.61"/>
    </clipPath>
    <clipPath id="clippath-6">
      <rect class="st0" x="-97.81" y="-57.14" width="606.61" height="266.61"/>
    </clipPath>
    <clipPath id="clippath-7">
      <rect class="st0" x="-97.81" y="-57.14" width="606.61" height="266.61"/>
    </clipPath>
    <clipPath id="clippath-8">
      <rect class="st0" x="-97.81" y="-57.14" width="606.61" height="266.61"/>
    </clipPath>
    <clipPath id="clippath-9">
      <rect class="st0" x="-97.81" y="-57.14" width="606.61" height="266.61"/>
    </clipPath>
    <clipPath id="clippath-10">
      <rect class="st0" x="-97.81" y="-57.14" width="606.61" height="266.61"/>
    </clipPath>
    <clipPath id="clippath-11">
      <rect class="st0" x="-97.81" y="-57.14" width="606.61" height="266.61"/>
    </clipPath>
    <clipPath id="clippath-12">
      <rect class="st0" x="-97.81" y="-57.14" width="606.61" height="266.61"/>
    </clipPath>
    <clipPath id="clippath-13">
      <rect class="st0" x="-97.81" y="-57.14" width="606.61" height="266.61"/>
    </clipPath>
    <clipPath id="clippath-14">
      <rect class="st0" x="-97.81" y="-57.14" width="606.61" height="266.61"/>
    </clipPath>
    <clipPath id="clippath-15">
      <rect class="st0" x="-97.81" y="-57.14" width="606.61" height="266.61"/>
    </clipPath>
    <clipPath id="clippath-16">
      <rect class="st0" x="-97.81" y="-57.14" width="606.61" height="266.61"/>
    </clipPath>
    <clipPath id="clippath-17">
      <rect class="st0" x="-97.81" y="-57.14" width="606.61" height="266.61"/>
    </clipPath>
    <clipPath id="clippath-18">
      <rect class="st0" x="-97.81" y="-57.14" width="606.61" height="266.61"/>
    </clipPath>
    <clipPath id="clippath-19">
      <rect class="st0" x="-97.81" y="-57.14" width="606.61" height="266.61"/>
    </clipPath>
    <clipPath id="clippath-20">
      <rect class="st0" x="-97.81" y="-57.14" width="606.61" height="266.61"/>
    </clipPath>
    <clipPath id="clippath-21">
      <rect class="st0" x="-97.81" y="-57.14" width="606.61" height="266.61"/>
    </clipPath>
    <clipPath id="clippath-22">
      <rect class="st0" x="-97.81" y="-57.14" width="606.61" height="266.61"/>
    </clipPath>
    <clipPath id="clippath-23">
      <rect class="st0" x="-97.81" y="-57.14" width="606.61" height="266.61"/>
    </clipPath>
    <clipPath id="clippath-24">
      <rect class="st0" x="-97.81" y="-57.14" width="606.61" height="266.61"/>
    </clipPath>
    <clipPath id="clippath-25">
      <rect class="st0" x="-97.81" y="-57.14" width="606.61" height="266.61"/>
    </clipPath>
    <clipPath id="clippath-26">
      <rect class="st0" x="-97.81" y="-57.14" width="606.61" height="266.61"/>
    </clipPath>
    <clipPath id="clippath-27">
      <rect class="st0" x="-97.81" y="-57.14" width="606.61" height="266.61"/>
    </clipPath>
    <clipPath id="clippath-28">
      <rect class="st0" x="-97.81" y="-57.14" width="606.61" height="266.61"/>
    </clipPath>
    <clipPath id="clippath-29">
      <rect class="st0" x="-97.81" y="-57.14" width="606.61" height="266.61"/>
    </clipPath>
    <clipPath id="clippath-30">
      <rect class="st0" x="-97.81" y="-57.14" width="606.61" height="266.61"/>
    </clipPath>
    <clipPath id="clippath-31">
      <rect class="st0" x="-97.81" y="-57.14" width="606.61" height="266.61"/>
    </clipPath>
    <clipPath id="clippath-32">
      <path class="st0" d="M359.4,43.97c-6.29-7.14-15.9-11.3-26.41-9.92-15.04,1.97-25.9,15.52-25.9,30.69v36.01h4.94c5.52,0,10-4.48,10-10v-26.64c0-7.13,4.82-13.62,11.81-15.05,9.61-1.97,18.08,5.36,18.08,14.62v25.75h4.5c5.77,0,10.44-4.68,10.44-10.44v-14.88c0-7.13,4.82-13.62,11.81-15.05,9.61-1.97,18.08,5.36,18.08,14.62v37.07h4.01c6.04,0,10.94-4.9,10.94-10.94v-25.07c0-15.17-10.86-28.72-25.9-30.69-1.35-.18-2.68-.26-3.99-.26-8.93,0-16.94,3.96-22.42,10.19Z"/>
    </clipPath>
    <linearGradient id="linear-gradient" x1="-210.82" y1="106.43" x2="-209.84" y2="106.43" gradientTransform="translate(14908.1 -22206.1) rotate(-30) scale(112.88)" gradientUnits="userSpaceOnUse">
      <stop offset="0" stop-color="#45b97c"/>
      <stop offset=".4" stop-color="#45b97c"/>
      <stop offset="1" stop-color="#8cc864"/>
    </linearGradient>
    <clipPath id="clippath-33">
      <rect class="st0" x="-97.81" y="-57.14" width="606.61" height="266.61"/>
    </clipPath>
    <clipPath id="clippath-34">
      <rect class="st0" x="-97.81" y="-57.14" width="606.61" height="266.61"/>
    </clipPath>
    <clipPath id="clippath-35">
      <rect class="st0" x="-97.81" y="-57.14" width="606.61" height="266.61"/>
    </clipPath>
    <clipPath id="clippath-36">
      <rect class="st0" x="-97.81" y="-57.14" width="606.61" height="266.61"/>
    </clipPath>
    <clipPath id="clippath-37">
      <rect class="st0" x="-97.81" y="-57.14" width="606.61" height="266.61"/>
    </clipPath>
    <clipPath id="clippath-38">
      <rect class="st0" x="-97.81" y="-57.14" width="606.61" height="266.61"/>
    </clipPath>
    <clipPath id="clippath-39">
      <rect class="st0" x="-97.81" y="-57.14" width="606.61" height="266.61"/>
    </clipPath>
    <clipPath id="clippath-40">
      <rect class="st0" x="-97.81" y="-57.14" width="606.61" height="266.61"/>
    </clipPath>
    <clipPath id="clippath-41">
      <rect class="st0" x="-97.81" y="-57.14" width="606.61" height="266.61"/>
    </clipPath>
    <clipPath id="clippath-42">
      <rect class="st0" x="-97.81" y="-57.14" width="606.61" height="266.61"/>
    </clipPath>
    <clipPath id="clippath-43">
      <rect class="st0" x="-97.81" y="-57.14" width="606.61" height="266.61"/>
    </clipPath>
    <clipPath id="clippath-44">
      <rect class="st0" x="-97.81" y="-57.14" width="606.61" height="266.61"/>
    </clipPath>
    <clipPath id="clippath-45">
      <rect class="st0" x="-97.81" y="-57.14" width="606.61" height="266.61"/>
    </clipPath>
    <clipPath id="clippath-46">
      <rect class="st0" x="-97.81" y="-57.14" width="606.61" height="266.61"/>
    </clipPath>
    <clipPath id="clippath-47">
      <rect class="st0" x="-97.81" y="-57.14" width="606.61" height="266.61"/>
    </clipPath>
    <clipPath id="clippath-48">
      <rect class="st0" x="-97.81" y="-57.14" width="606.61" height="266.61"/>
    </clipPath>
    <clipPath id="clippath-49">
      <rect class="st0" x="-97.81" y="-57.14" width="606.61" height="266.61"/>
    </clipPath>
  </defs>
  <g class="st54">
    <path class="st53" d="M44.21,67.77h-14.18c-13.25,0-24.02-10.78-24.02-24.02s10.78-24.02,24.02-24.02h19.04v14.95h-19.04c-5,0-9.07,4.07-9.07,9.07s4.07,9.07,9.07,9.07h14.18v14.95Z"/>
  </g>
  <g class="st42">
    <path class="st53" d="M44.21,100.87H11.8v-14.95h32.4c5,0,9.07-4.07,9.07-9.07s-4.07-9.07-9.07-9.07h-1.58v-14.95h1.58c13.24,0,24.02,10.78,24.02,24.02s-10.78,24.02-24.02,24.02"/>
  </g>
  <g class="st45">
    <path class="st53" d="M150.69,100.87c-30.88,0-30.88-28.43-30.88-39.14V16.52h14.95v45.2c0,16.04,2.46,24.19,15.93,24.19v14.95Z"/>
  </g>
  <g class="st43">
    <rect class="st53" x="113.05" y="36.28" width="29.11" height="14.95"/>
  </g>
  <g class="st44">
    <path class="st53" d="M108.86,100.87c-30.88,0-30.88-28.43-30.88-39.14,0-1.05-.1-2.57-.22-4.5-.23-3.57-.54-14.33-.54-20.96h14.95c0,6.15.29,16.64.51,20.01.14,2.19.25,3.92.25,5.45,0,16.04,2.46,24.19,15.93,24.19v14.95Z"/>
  </g>
  <g class="st50">
    <rect class="st53" x="77.23" y="16.52" width="14.95" height="12.81"/>
  </g>
  <g class="st47">
    <path class="st53" d="M264.33,100.87c-18.25,0-33.1-14.85-33.1-33.1s14.85-33.09,33.1-33.09,33.1,14.85,33.1,33.09c0,18.25-14.85,33.1-33.1,33.1M264.33,49.62c-10.01,0-18.15,8.14-18.15,18.15s8.14,18.15,18.15,18.15,18.15-8.14,18.15-18.15c0-10.01-8.14-18.15-18.15-18.15"/>
  </g>
  <g class="st46">
    <path class="st53" d="M192.83,100.86c-18.25.09-33.17-14.69-33.26-32.94-.09-18.25,14.69-33.17,32.94-33.25,13.98-.07,26.55,8.72,31.3,21.86l-14.06,5.07c-2.6-7.21-9.5-12.02-17.16-11.98-10.01.05-18.11,8.23-18.06,18.24.05,10.01,8.23,18.11,18.24,18.06,7.31-.04,13.86-4.42,16.67-11.17l13.8,5.76c-5.13,12.3-17.06,20.29-30.39,20.36"/>
  </g>
  <g class="st49">
    <path class="st53" d="M161.96,124.66l-.67,4.32h-1.25l2.15-13.07h1.78l2.25,13.07h-1.31l-.7-4.32h-2.25ZM164.05,123.5c-.51-3.03-.84-5.28-.96-6.45h-.06c-.04,1-.53,3.97-.9,6.45h1.92Z"/>
  </g>
  <g class="st48">
    <path class="st53" d="M172.07,115.91v10.21c0,1.1.39,1.88,1.41,1.88s1.41-.7,1.41-1.88v-10.21h1.27v10.17c0,2.02-.92,3.07-2.7,3.07s-2.64-1-2.64-3.03v-10.21h1.25Z"/>
  </g>
  <g class="st7">
    <path class="st53" d="M188.3,125.34v.74c0,1.29.45,1.98,1.41,1.98s1.37-.67,1.37-2.23-.33-2.19-1.7-3.25c-1.41-1.1-2.09-1.74-2.09-3.66,0-1.64.49-3.21,2.46-3.19,1.84.02,2.39,1.21,2.39,2.91v.59h-1.25v-.55c0-1.12-.22-1.86-1.17-1.86s-1.19.84-1.19,1.9c0,1.29.25,1.74,1.47,2.66,1.78,1.37,2.35,2.11,2.35,4.26,0,1.84-.49,3.5-2.64,3.5-2.04,0-2.64-1.35-2.64-3.07v-.74h1.25Z"/>
  </g>
  <g class="st4">
    <polygon class="st53" points="201.47 122.56 198.53 122.56 198.53 127.84 201.86 127.84 201.68 128.98 197.28 128.98 197.28 115.91 201.64 115.91 201.64 117.07 198.53 117.07 198.53 121.43 201.47 121.43 201.47 122.56"/>
  </g>
  <g class="st11">
    <path class="st53" d="M206.53,115.91h2.17c1.96,0,2.88.86,2.88,2.97v.63c0,1.72-.57,2.48-1.33,2.76.84.29,1.21.94,1.21,2.68,0,1.11-.02,3.19.14,4.03h-1.21c-.18-.82-.14-3.03-.14-3.93,0-1.72-.26-2.23-1.57-2.23h-.9v6.16h-1.25v-13.07h0ZM207.78,121.74h.94c1.29,0,1.61-.78,1.61-2.17v-.6c0-1.25-.35-1.98-1.7-1.98h-.84v4.75Z"/>
  </g>
  <g class="st9">
    <path class="st53" d="M217.32,115.91l.9,5.99c.29,1.84.68,4.17.8,5.48h.04c.1-1.27.53-3.6.8-5.42l.94-6.05h1.33l-2.31,13.07h-1.56l-2.29-13.07h1.35Z"/>
  </g>
  <g class="st10">
    <rect class="st53" x="226.83" y="115.91" width="1.25" height="13.07"/>
  </g>
  <g class="st8">
    <path class="st53" d="M238.45,125.26v.43c0,1.7-.31,3.46-2.58,3.46s-2.58-1.62-2.58-3.54v-6.65c0-2.11.9-3.23,2.6-3.23,2.13,0,2.5,1.55,2.5,3.23v.51h-1.27v-.57c0-1.08-.15-2.04-1.25-2.04s-1.31.86-1.31,2.07v6.75c0,1.41.31,2.33,1.35,2.33,1.1,0,1.27-.96,1.27-2.25v-.51h1.27Z"/>
  </g>
  <g class="st5">
    <polygon class="st53" points="247.54 122.56 244.61 122.56 244.61 127.84 247.93 127.84 247.76 128.98 243.35 128.98 243.35 115.91 247.72 115.91 247.72 117.07 244.61 117.07 244.61 121.43 247.54 121.43 247.54 122.56"/>
  </g>
  <g class="st2">
    <path class="st53" d="M258.78,115.91h2.29c2.82,0,3.11,1.82,3.11,3.82v5.18c0,2.01-.31,4.07-3.23,4.07h-2.17v-13.07h0ZM260.04,127.88h.82c1.64,0,2.05-.9,2.05-2.7v-5.63c0-1.59-.29-2.54-2.03-2.54h-.84v10.88Z"/>
  </g>
  <g class="st6">
    <polygon class="st53" points="273.55 122.56 270.62 122.56 270.62 127.84 273.94 127.84 273.77 128.98 269.36 128.98 269.36 115.91 273.73 115.91 273.73 117.07 270.62 117.07 270.62 121.43 273.55 121.43 273.55 122.56"/>
  </g>
  <g class="st3">
    <path class="st53" d="M285.34,125.34v.74c0,1.29.45,1.98,1.41,1.98s1.37-.67,1.37-2.23-.33-2.19-1.7-3.25c-1.41-1.1-2.09-1.74-2.09-3.66,0-1.64.49-3.21,2.46-3.19,1.84.02,2.39,1.21,2.39,2.91v.59h-1.25v-.55c0-1.12-.22-1.86-1.17-1.86s-1.19.84-1.19,1.9c0,1.29.25,1.74,1.47,2.66,1.78,1.37,2.35,2.11,2.35,4.26,0,1.84-.49,3.5-2.64,3.5-2.04,0-2.64-1.35-2.64-3.07v-.74h1.25Z"/>
  </g>
  <g class="st26">
    <path class="st53" d="M299.72,119.06v6.69c0,2.25-.92,3.4-2.8,3.4-2.02,0-2.7-1.31-2.7-3.38v-6.71c0-2.15.96-3.32,2.78-3.32,1.92,0,2.72,1.37,2.72,3.32M295.49,119.02v6.83c0,1.57.57,2.17,1.49,2.17s1.47-.59,1.47-2.23v-6.75c0-1.47-.51-2.17-1.49-2.17-1,0-1.47.67-1.47,2.15"/>
  </g>
  <g class="st27">
    <path class="st53" d="M304.9,128.98v-13.07h1.51l2.33,8.33c.29,1.02.43,1.8.53,2.31h.04c-.08-1.78-.1-3.62-.1-5.75v-4.89h1.17v13.07h-1.45l-2.6-9.49c-.18-.66-.27-1.17-.33-1.53h-.02c.08,1.57.12,3.74.12,6.1v4.91h-1.19Z"/>
  </g>
  <g class="st28">
    <polygon class="st53" points="323.12 117.07 320.99 117.07 320.99 115.91 326.47 115.91 326.47 117.07 324.36 117.07 324.36 128.98 323.12 128.98 323.12 117.07"/>
  </g>
  <g class="st29">
    <polygon class="st53" points="335.13 122.56 332.2 122.56 332.2 127.84 335.53 127.84 335.35 128.98 330.95 128.98 330.95 115.91 335.31 115.91 335.31 117.07 332.2 117.07 332.2 121.43 335.13 121.43 335.13 122.56"/>
  </g>
  <g class="st30">
    <path class="st53" d="M340.2,115.91h2.17c1.96,0,2.88.86,2.88,2.97v.63c0,1.72-.57,2.48-1.33,2.76.84.29,1.21.94,1.21,2.68,0,1.11-.02,3.19.14,4.03h-1.21c-.18-.82-.14-3.03-.14-3.93,0-1.72-.26-2.23-1.57-2.23h-.9v6.16h-1.25v-13.07h0ZM341.45,121.74h.94c1.29,0,1.6-.78,1.6-2.17v-.6c0-1.25-.35-1.98-1.7-1.98h-.84v4.75h0Z"/>
  </g>
  <g class="st31">
    <path class="st53" d="M350.37,115.91h2.17c1.96,0,2.88.86,2.88,2.97v.63c0,1.72-.57,2.48-1.33,2.76.84.29,1.21.94,1.21,2.68,0,1.11-.02,3.19.14,4.03h-1.21c-.18-.82-.14-3.03-.14-3.93,0-1.72-.26-2.23-1.57-2.23h-.9v6.16h-1.25v-13.07h0ZM351.62,121.74h.94c1.29,0,1.6-.78,1.6-2.17v-.6c0-1.25-.35-1.98-1.7-1.98h-.84v4.75h0Z"/>
  </g>
  <g class="st24">
    <rect class="st53" x="360.54" y="115.91" width="1.25" height="13.07"/>
  </g>
  <g class="st22">
    <polygon class="st53" points="368.48 117.07 366.34 117.07 366.34 115.91 371.82 115.91 371.82 117.07 369.71 117.07 369.71 128.98 368.48 128.98 368.48 117.07"/>
  </g>
  <g class="st25">
    <path class="st53" d="M381.44,119.06v6.69c0,2.25-.92,3.4-2.8,3.4-2.02,0-2.7-1.31-2.7-3.38v-6.71c0-2.15.96-3.32,2.78-3.32,1.92,0,2.72,1.37,2.72,3.32M377.22,119.02v6.83c0,1.57.57,2.17,1.49,2.17s1.47-.59,1.47-2.23v-6.75c0-1.47-.51-2.17-1.49-2.17-1,0-1.47.67-1.47,2.15"/>
  </g>
  <g class="st23">
    <rect class="st53" x="386.63" y="115.91" width="1.25" height="13.07"/>
  </g>
  <g class="st18">
    <path class="st53" d="M393.37,115.91h2.17c1.96,0,2.88.86,2.88,2.97v.63c0,1.72-.57,2.48-1.33,2.76.84.29,1.21.94,1.21,2.68,0,1.11-.02,3.19.14,4.03h-1.21c-.18-.82-.14-3.03-.14-3.93,0-1.72-.26-2.23-1.57-2.23h-.9v6.16h-1.25v-13.07h0ZM394.62,121.74h.94c1.29,0,1.6-.78,1.6-2.17v-.6c0-1.25-.35-1.98-1.7-1.98h-.84v4.75h0Z"/>
  </g>
  <g class="st12">
    <polygon class="st53" points="407.73 122.56 404.79 122.56 404.79 127.84 408.12 127.84 407.94 128.98 403.54 128.98 403.54 115.91 407.9 115.91 407.9 117.07 404.79 117.07 404.79 121.43 407.73 121.43 407.73 122.56"/>
  </g>
  <g class="st13">
    <polygon class="st1" points="277.61 49.69 390.41 0 425.19 90.47 333.24 146.05 277.61 49.69"/>
  </g>
  <g>
    <g class="st14">
      <path class="st51" d="M151.04,130.6H17.28c-3.31,0-5.99-2.68-5.99-5.99v-11.18h139.76v17.18Z"/>
    </g>
    <g class="st15">
      <path class="st52" d="M21.04,124.56v.46c0,1.8-.33,3.66-2.73,3.66s-2.73-1.72-2.73-3.74v-7.03c0-2.23.95-3.41,2.75-3.41,2.25,0,2.65,1.63,2.65,3.41v.54h-1.35v-.6c0-1.14-.17-2.15-1.32-2.15s-1.39.91-1.39,2.19v7.14c0,1.49.33,2.46,1.43,2.46,1.16,0,1.35-1.01,1.35-2.38v-.54h1.35Z"/>
    </g>
    <g class="st16">
      <path class="st52" d="M28.96,120.92v4.47c0,2.3-1.08,3.27-2.69,3.27s-2.63-.95-2.63-3.21v-4.55c0-1.96,1.01-3.06,2.69-3.06s2.63,1.14,2.63,3.08M26.95,114.07l1.55,2.42h-1.24l-.99-1.65-.99,1.65h-1.2l1.53-2.42h1.34ZM24.97,120.9v4.61c0,1.2.41,1.97,1.32,1.97.85,0,1.32-.58,1.32-1.99v-4.62c0-1.08-.37-1.86-1.3-1.86-.93,0-1.34.68-1.34,1.88"/>
    </g>
    <g class="st19">
      <path class="st52" d="M30.97,118h1.22v-2.59h1.3v2.59h1.51v1.18h-1.51v7.24c0,.54.1,1.1.77,1.1.21,0,.52-.02.68-.06v1.03c-.31.1-.77.15-1.12.15-.93,0-1.63-.44-1.63-1.99v-7.47h-1.22v-1.18Z"/>
    </g>
    <g class="st20">
      <path class="st52" d="M38.31,123.49v1.76c0,1.1.21,2.28,1.3,2.28,1.03,0,1.24-.83,1.24-1.9v-.08h1.28v.08c0,1.24-.29,3.04-2.52,3.04-2.09,0-2.61-1.39-2.61-3.52v-4.01c0-1.63.58-3.29,2.63-3.29s2.52,1.49,2.52,3.29v2.36h-3.85ZM40.9,122.39v-1.36c0-.97-.15-2.05-1.28-2.05-1.05,0-1.3.91-1.3,2.07v1.35h2.59Z"/>
    </g>
    <g class="st21">
      <path class="st52" d="M49.75,125.41v.46c0,1.12.46,1.65,1.22,1.65.87,0,1.2-.54,1.2-1.57,0-1.1-.33-1.57-1.51-2.36-1.39-.93-2.03-1.66-2.03-3.1s.68-2.65,2.38-2.65c1.82,0,2.36,1.2,2.36,2.69v.5h-1.3v-.56c0-.93-.25-1.49-1.08-1.49-.74,0-1.05.52-1.05,1.39s.27,1.26,1.35,1.96c1.47.97,2.21,1.72,2.21,3.44,0,1.88-.81,2.9-2.59,2.9-1.97,0-2.48-1.35-2.48-2.77v-.48h1.32Z"/>
    </g>
    <g class="st17">
      <path class="st52" d="M61.21,125.72c0,1.3,0,2.3.02,2.77h-1.26c-.02-.19-.04-.72-.04-1.12-.33.95-.97,1.28-1.88,1.28-.83,0-2.03-.31-2.03-2.67v-7.99h1.32v7.63c0,1.32.35,1.82,1.16,1.82.74,0,1.39-.46,1.39-2.61v-6.85h1.32v7.72h0Z"/>
    </g>
    <g class="st38">
      <path class="st52" d="M69.45,114.05v11.79c0,1.16,0,2.05.02,2.65h-1.26c-.02-.19-.06-.77-.06-1.04-.25.62-.72,1.2-1.82,1.2-1.74,0-2.19-1.37-2.19-3.37v-4.35c0-1.86.74-3.1,2.36-3.1.93,0,1.43.41,1.63.79v-4.57h1.32ZM65.45,125.31c0,1.41.37,2.13,1.24,2.13,1.16,0,1.43-1.12,1.43-2.61v-3.52c0-1.16-.12-2.26-1.39-2.26-.89,0-1.28.74-1.28,1.95v4.3Z"/>
    </g>
    <g class="st32">
      <path class="st52" d="M81.74,114.05v11.79c0,1.16,0,2.05.02,2.65h-1.26c-.02-.19-.06-.77-.06-1.04-.25.62-.72,1.2-1.82,1.2-1.74,0-2.19-1.37-2.19-3.37v-4.35c0-1.86.74-3.1,2.36-3.1.93,0,1.43.41,1.63.79v-4.57h1.32ZM77.74,125.31c0,1.41.37,2.13,1.24,2.13,1.16,0,1.43-1.12,1.43-2.61v-3.52c0-1.16-.12-2.26-1.39-2.26-.89,0-1.28.74-1.28,1.95v4.3Z"/>
    </g>
    <g class="st33">
      <path class="st52" d="M85.96,123.49v1.76c0,1.1.21,2.28,1.3,2.28,1.03,0,1.24-.83,1.24-1.9v-.08h1.28v.08c0,1.24-.29,3.04-2.52,3.04-2.09,0-2.61-1.39-2.61-3.52v-4.01c0-1.63.58-3.29,2.63-3.29s2.52,1.49,2.52,3.29v2.36h-3.85ZM88.54,122.39v-1.36c0-.97-.15-2.05-1.28-2.05-1.05,0-1.3.91-1.3,2.07v1.35h2.59Z"/>
    </g>
    <g class="st34">
      <path class="st52" d="M93.57,125.41v.46c0,1.12.46,1.65,1.22,1.65.87,0,1.2-.54,1.2-1.57,0-1.1-.33-1.57-1.51-2.36-1.39-.93-2.03-1.66-2.03-3.1s.68-2.65,2.38-2.65c1.82,0,2.36,1.2,2.36,2.69v.5h-1.3v-.56c0-.93-.25-1.49-1.08-1.49-.74,0-1.05.52-1.05,1.39s.27,1.26,1.35,1.96c1.47.97,2.21,1.72,2.21,3.44,0,1.88-.81,2.9-2.59,2.9-1.97,0-2.48-1.35-2.48-2.77v-.48h1.32Z"/>
    </g>
    <g class="st35">
      <polygon class="st52" points="104.14 114.67 105.46 114.67 105.46 127.31 108.94 127.31 108.78 128.49 104.14 128.49 104.14 114.67"/>
    </g>
    <g class="st36">
      <path class="st52" d="M116.16,126.75c0,.72.02,1.45.04,1.74h-1.22c-.06-.27-.1-.68-.1-.87-.33.81-.99,1.04-1.72,1.04-1.49,0-2.09-1.32-2.09-2.94v-.19c0-2.34,1.41-3.21,3.27-3.21h.5v-1.74c0-.97-.17-1.61-1.04-1.61s-1.1.66-1.1,1.51v.31h-1.3v-.29c0-1.45.58-2.67,2.44-2.67s2.32,1.16,2.32,2.67v6.25ZM114.88,123.4h-.56c-1.24,0-1.96.52-1.96,2.09v.18c0,.97.29,1.78,1.16,1.78,1.03,0,1.37-.83,1.37-2.44v-1.61Z"/>
    </g>
    <g class="st39">
      <path class="st52" d="M119.41,121.19c0-2.11,0-2.67-.02-3.19h1.24c.04.23.06.58.06,1.08.31-.81.95-1.24,1.92-1.24,1.12,0,2.05.62,2.05,2.54v8.11h-1.32v-7.86c0-1.01-.33-1.57-1.14-1.57-.91,0-1.49.44-1.49,2.57v6.87h-1.3v-7.3h0Z"/>
    </g>
    <g class="st40">
      <path class="st52" d="M132.9,114.05v11.79c0,1.16,0,2.05.02,2.65h-1.26c-.02-.19-.06-.77-.06-1.04-.25.62-.72,1.2-1.82,1.2-1.74,0-2.19-1.37-2.19-3.37v-4.35c0-1.86.74-3.1,2.36-3.1.93,0,1.43.41,1.63.79v-4.57h1.32ZM128.91,125.31c0,1.41.37,2.13,1.24,2.13,1.16,0,1.43-1.12,1.43-2.61v-3.52c0-1.16-.12-2.26-1.39-2.26-.89,0-1.28.74-1.28,1.95v4.3h0Z"/>
    </g>
    <g class="st41">
      <path class="st52" d="M137.12,123.49v1.76c0,1.1.21,2.28,1.3,2.28,1.03,0,1.24-.83,1.24-1.9v-.08h1.28v.08c0,1.24-.29,3.04-2.52,3.04-2.09,0-2.61-1.39-2.61-3.52v-4.01c0-1.63.58-3.29,2.63-3.29s2.52,1.49,2.52,3.29v2.36h-3.85ZM139.71,122.39v-1.36c0-.97-.15-2.05-1.28-2.05-1.06,0-1.3.91-1.3,2.07v1.35h2.59Z"/>
    </g>
    <g class="st37">
      <path class="st52" d="M144.73,125.41v.46c0,1.12.46,1.65,1.22,1.65.87,0,1.2-.54,1.2-1.57,0-1.1-.33-1.57-1.51-2.36-1.39-.93-2.03-1.66-2.03-3.1s.68-2.65,2.38-2.65c1.82,0,2.36,1.2,2.36,2.69v.5h-1.3v-.56c0-.93-.25-1.49-1.07-1.49-.74,0-1.05.52-1.05,1.39s.27,1.26,1.34,1.96c1.47.97,2.21,1.72,2.21,3.44,0,1.88-.81,2.9-2.59,2.9-1.97,0-2.48-1.35-2.48-2.77v-.48h1.32Z"/>
    </g>
  </g>
</svg>